<?xml version="1.0" encoding="UTF-8"?>
<svg width="24px" height="21px" viewBox="0 0 24 21" version="1.1" xmlns="http://www.w3.org/2000/svg" xmlns:xlink="http://www.w3.org/1999/xlink">
    <!-- Generator: sketchtool 52.2 (67145) - http://www.bohemiancoding.com/sketch -->
    <title>740DB2B0-C90B-4C93-B676-422F11F97177</title>
    <desc>Created with sketchtool.</desc>
    <g id="orders" stroke="none" stroke-width="1" fill="none" fill-rule="evenodd">
        <g id="targetView-orders" transform="translate(-16.000000, -18.000000)" fill="#00AEEF" fill-rule="nonzero">
            <g id="global-nav--expanded">
                <g id="menu-icon">
                    <path d="M16.9352355,28.1545596 C15.985103,24.9343322 15.8558129,22.2132249 16.1204067,20.706844 C16.3850006,19.2004631 17.2479373,17.9646896 18.3213465,18.0007706 C19.3947556,18.0368515 20.6575899,18.9960043 22.7021788,19.919076 C24.7497744,20.7820127 28.2676699,22.6762642 33.9263702,23.5482212 C35.8296419,23.7977813 37.2578473,23.9601457 38.1538583,24.2337598 C39.0498693,24.5073739 40.8599318,25.5657493 39.5249356,28.1425326 C39.0649031,29.0445571 38.0666626,30.1660742 36.6564977,31.3387061 C32.5282322,34.8235274 29.8582397,36.2697733 28.1383797,37.1116628 C26.4395669,37.8994309 25.0534559,38.2452069 23.9289321,38.2692609 C22.7623137,38.2692609 21.7309991,37.7581137 20.8259678,36.7237923 C19.9209366,35.6894709 18.8475274,33.7892059 17.7711115,30.7764441 C17.4824637,29.9255344 17.1998293,29.0565841 16.9352355,28.1545596 Z M22.1549506,29.4594884 C22.1549506,31.9069815 22.269207,32.9112354 22.4947131,33.5246121 C22.7202192,34.1379887 23.1110965,34.4266366 23.6703517,34.4266366 C24.4301342,34.3697896 25.173056,34.174123 25.8622712,33.8493409 C26.7923587,33.4624726 28.3207891,32.6977563 30.4475624,31.5551919 C31.0003907,31.2835039 31.5075815,30.927456 31.9509366,30.4998233 C32.5146931,29.8584147 32.5146931,28.8981977 31.9509366,28.256789 C31.5068128,27.8300891 30.9997746,27.4741482 30.4475624,27.2014204 C28.3227936,26.0568515 26.7943632,25.2921352 25.8622712,24.9072714 C25.1720077,24.5824555 24.428095,24.3867963 23.667345,24.3299758 C23.1100943,24.3299758 22.719217,24.6306506 22.4947131,25.2320002 C22.269207,25.8724376 22.1519438,27.0089885 22.1519438,29.4594884 L22.1549506,29.4594884 Z" id="sightly-logo"></path>
                </g>
            </g>
        </g>
    </g>
</svg>